:version 1.10
:name ASF
:units
  mass 1
  length 1
  angle deg
:documentation
  ASF file generated by Kaydara
:root
  axis xyz
  order  tx ty tz rx ry rz
  position 0 0 0
  orientation 0 0 0
:bonedata
  begin
    id 1
    name RightUpLegDummy
    direction -1 2.30186e-007 8.31532e-007
    length 4.04083
    axis 0 0 0 xyz
  end
  begin
    id 2
    name RightUpLeg
    direction -0.000919234 -0.999985 0.00544864
    length 17.4221
    axis -3.80308 -0.00076134 -0.0523649 xyz
    dof rx ry rz
  end
  begin
    id 3
    name RightLeg
    direction -0.000919271 -0.999984 -0.00555045
    length 17.1239
    axis 4.00314 0.0181274 -0.183583 xyz
    dof rx ry rz
  end
  begin
    id 4
    name RightFoot
    direction -2.57843e-005 -4.04509e-007 1
    length 6.72091
    axis 8.18909e-005 -0.122003 -0.403008 xyz
    dof rx ry rz
  end
  begin
    id 5
    name RightToes
    direction 0.00116825 -0.014069 0.9999
    length 3.85082
    axis 0.000514414 0.540638 -0.356797 xyz
    dof rx ry rz
  end
  begin
    id 6
    name SpineDummy
    direction 0.0168869 0.966876 -0.254689
    length 6.99894
    axis 0 0 0 xyz
  end
  begin
    id 7
    name Spine
    direction -0.0132008 0.999903 0.00446247
    length 11.1999
    axis -0.00148109 0.00725429 0.756411 xyz
    dof rx ry rz
  end
  begin
    id 8
    name Spine1
    direction 0 0 0
    length 0
    axis -0.000934958 0.0245693 1.46543 xyz
    dof rx ry rz
  end
  begin
    id 9
    name HEadDummy
    direction -0.0255732 0.999672 0.00128215
    length 3.43865
    axis -0.000934958 0.0245693 1.46543 xyz
  end
  begin
    id 10
    name HEad
    direction -0.0472656 0.980052 0.19304
    length 5.12695
    axis -0.000934954 0.0245693 1.46543 xyz
    dof rx ry rz
  end
  begin
    id 11
    name LeftShoulder1Dummy
    direction 0.953098 0.301717 -0.023914
    length 3.68488
    axis -0.000934958 0.0245693 1.46543 xyz
  end
  begin
    id 12
    name LeftShoulder1
    direction 0.962466 0.271167 0.0112566
    length 3.13809
    axis -0.000934958 0.0245693 1.46543 xyz
    dof rx ry rz
  end
  begin
    id 13
    name LeftArm
    direction 0.999943 0.00455037 -0.00961766
    length 11.3419
    axis -23.1648 0.685459 1.22814 xyz
    dof rx ry rz
  end
  begin
    id 14
    name LeftForeArm
    direction 0.999332 0.0131969 0.0340885
    length 8.70632
    axis -9.90633 0.618216 0.0826942 xyz
    dof rx ry rz
  end
  begin
    id 15
    name LeftHand
    direction 0.994373 -0.0366703 0.0993905
    length 5.32135
    axis 0.00675269 0.680415 0.445699 xyz
    dof rx ry rz
  end
  begin
    id 16
    name RightShoulderDummy
    direction -0.967298 0.252589 -0.0230903
    length 3.68488
    axis -0.000934958 0.0245693 1.46543 xyz
  end
  begin
    id 17
    name RightShoulder
    direction -0.975062 0.221602 0.0120823
    length 3.13809
    axis 0.216257 0.0246515 1.45863 xyz
    dof rx ry rz
  end
  begin
    id 18
    name RightArm
    direction -0.99886 -0.00851186 -0.0469687
    length 10.3947
    axis -23.196 0.23503 -0.532632 xyz
    dof rx ry rz
  end
  begin
    id 19
    name RightForeArm
    direction -0.99909 0.00114866 0.0426317
    length 8.68355
    axis -9.91764 -0.134943 0.610517 xyz
    dof rx ry rz
  end
  begin
    id 20
    name RightHand
    direction -0.992888 -0.0489538 0.10852
    length 5.28593
    axis -0.00275396 -0.197403 0.246414 xyz
    dof rx ry rz
  end
  begin
    id 21
    name LeftUpLegDummy
    direction 1 -2.30186e-007 -8.31532e-007
    length 4.04083
    axis 0 0 0 xyz
  end
  begin
    id 22
    name LeftUpLeg
    direction -0.000920097 -1 2.79241e-006
    length 17.4221
    axis -3.48782 0.00143434 -0.0532288 xyz
    dof rx ry rz
  end
  begin
    id 23
    name LeftLeg
    direction -0.000920097 -1 2.7912e-006
    length 17.1239
    axis 3.68162 -0.00806512 -0.0529896 xyz
    dof rx ry rz
  end
  begin
    id 24
    name LeftFoot
    direction -2.57845e-005 -3.987e-007 1
    length 6.72091
    axis 3.02372e-005 -0.00147829 -0.214229 xyz
    dof rx ry rz
  end
  begin
    id 25
    name LeftToes
    direction 0.00813577 -0.00488255 0.999955
    length 3.85048
    axis 3.89895e-005 -0.0014783 -0.214229 xyz
    dof rx ry rz
  end
:hierarchy
  begin
    root RightUpLegDummy SpineDummy LeftUpLegDummy
    RightUpLegDummy RightUpLeg
    RightUpLeg RightLeg
    RightLeg RightFoot
    RightFoot RightToes
    SpineDummy Spine
    Spine Spine1
    Spine1 HEadDummy LeftShoulder1Dummy RightShoulderDummy
    HEadDummy HEad
    LeftShoulder1Dummy LeftShoulder1
    LeftShoulder1 LeftArm
    LeftArm LeftForeArm
    LeftForeArm LeftHand
    RightShoulderDummy RightShoulder
    RightShoulder RightArm
    RightArm RightForeArm
    RightForeArm RightHand
    LeftUpLegDummy LeftUpLeg
    LeftUpLeg LeftLeg
    LeftLeg LeftFoot
    LeftFoot LeftToes
  end

:SAMPLES-PER-SECOND 30
:FULLY-SPECIFIED
:DEGREES
1
root  -15.487 34.6776 -8.41475 -170.138 -2.37288 179.245
RightUpLeg  -9.23029 -10.0223 1.32933
RightLeg  6.03863 -1.0921 -0.0460847
RightFoot  2.78305 0.012523 0.0901139
RightToes  -19.6232 -0.0802726 -0.175105
Spine  -2.51796 0.0390207 0.0172387
Spine1  -5.12195 0.209538 0.658333
HEad  -68.5707 -0.826718 7.09767
LeftShoulder1  -1.94126e-019 -3.10601e-018 -2.51263e-017
LeftArm  -6.22027 24.4853 -84.117
LeftForeArm  34.8268 -16.6355 -2.73279
LeftHand  -0.517383 -3.23069 7.20639
RightShoulder  -4.96962e-017 0 -2.36833e-017
RightArm  -18.6264 -22.7613 78.3335
RightForeArm  59.1036 14.3779 1.16844
RightHand  -0.478457 0.557287 -9.50742
LeftUpLeg  -8.73959 -6.70225 -1.48353
LeftLeg  5.07872 10.3926 0.251334
LeftFoot  3.52779 -0.0242192 0.797646
LeftToes  -16.292 1.31424e-006 1.14295e-007
2
root  -15.487 34.6758 -8.4199 -170.057 -2.36659 179.245
RightUpLeg  -9.29741 -9.98514 1.33758
RightLeg  6.02893 -1.12042 -0.0422015
RightFoot  2.7703 0.012523 0.0901139
RightToes  -19.6049 -0.0802726 -0.175105
Spine  -2.53248 0.0390207 0.0172387
Spine1  -5.1507 0.231504 0.667439
HEad  -68.4451 -0.848598 7.03975
LeftShoulder1  -1.94126e-019 -3.10601e-018 -2.51263e-017
LeftArm  -6.35978 24.4962 -84.1603
LeftForeArm  34.8768 -16.5383 -2.71425
LeftHand  -0.516068 -3.17346 7.23484
RightShoulder  -4.96962e-017 0 -2.36833e-017
RightArm  -18.6153 -22.8141 78.3312
RightForeArm  58.9921 14.4473 1.15109
RightHand  -0.479644 0.54104 -9.46084
LeftUpLeg  -8.81904 -6.89681 -1.46827
LeftLeg  5.09783 10.5875 0.259517
LeftFoot  3.54063 -0.0251786 0.812557
LeftToes  -16.4671 1.31424e-006 1.14295e-007
3
root  -15.487 34.6729 -8.43026 -170.018 -2.401 179.245
RightUpLeg  -9.31224 -10.0199 1.34877
RightLeg  6.02234 -1.10684 -0.0440639
RightFoot  2.73223 0.012523 0.0901139
RightToes  -19.4966 -0.0802726 -0.175105
Spine  -2.54006 0.0390207 0.0172387
Spine1  -5.16628 0.22606 0.664898
HEad  -68.3396 -0.854033 7.01155
LeftShoulder1  -1.94126e-019 -3.10601e-018 -2.51263e-017
LeftArm  -6.44182 24.509 -84.1651
LeftForeArm  34.8591 -16.4516 -2.70011
LeftHand  -0.516611 -3.19822 7.2238
RightShoulder  -4.96962e-017 0 -2.36833e-017
RightArm  -18.7177 -22.8404 78.3706
RightForeArm  58.9885 14.455 1.14918
RightHand  -0.479573 0.512183 -9.45675
LeftUpLeg  -8.86286 -6.95369 -1.45901
LeftLeg  5.13738 10.6115 0.267384
LeftFoot  3.51141 -0.0249249 0.808613
LeftToes  -16.3682 1.31424e-006 1.14295e-007
4
root  -15.486 34.6693 -8.4453 -169.98 -2.42435 179.245
RightUpLeg  -9.31826 -10.0477 1.35839
RightLeg  6.01544 -1.11059 -0.0440832
RightFoot  2.68361 0.012523 0.0901139
RightToes  -19.3851 -0.0802726 -0.175105
Spine  -2.5456 0.0390207 0.0172387
Spine1  -5.17781 0.218961 0.656902
HEad  -68.0856 -0.83829 6.89464
LeftShoulder1  -1.94126e-019 -3.10601e-018 -2.51263e-017
LeftArm  -6.58039 24.5237 -84.1689
LeftForeArm  34.8732 -16.3673 -2.68632
LeftHand  -0.51629 -3.15907 7.21412
RightShoulder  -4.96962e-017 0 -2.36833e-017
RightArm  -18.8207 -22.8656 78.4321
RightForeArm  58.9563 14.4566 1.14876
RightHand  -0.478614 0.500434 -9.48868
LeftUpLeg  -8.89226 -6.99158 -1.45048
LeftLeg  5.17683 10.6118 0.274655
LeftFoot  3.47582 -0.0244984 0.801985
LeftToes  -16.2577 1.31424e-006 1.14295e-007
5
root  -15.4854 34.6668 -8.45707 -169.95 -2.44511 179.245
RightUpLeg  -9.33254 -9.99443 1.36093
RightLeg  6.02978 -1.17689 -0.047072
RightFoot  2.65589 0.012523 0.0901139
RightToes  -19.385 -0.0802726 -0.175105
Spine  -2.55126 0.0390207 0.0172387
Spine1  -5.18956 0.213948 0.653675
HEad  -67.9637 -0.847739 6.85061
LeftShoulder1  -1.94126e-019 -3.10601e-018 -2.51263e-017
LeftArm  -6.69731 24.5335 -84.1728
LeftForeArm  34.8745 -16.3124 -2.67783
LeftHand  -0.514762 -3.1347 7.27514
RightShoulder  -4.96962e-017 0 -2.36833e-017
RightArm  -18.9476 -22.8781 78.4841
RightForeArm  58.9932 14.4508 1.15021
RightHand  -0.479073 0.506874 -9.47363
LeftUpLeg  -8.92075 -7.05315 -1.4406
LeftLeg  5.2136 10.6578 0.282637
LeftFoot  3.47429 -0.0246665 0.804597
LeftToes  -16.3389 1.31424e-006 1.14295e-007
6
root  -15.485 34.6645 -8.47279 -169.92 -2.44446 179.249
RightUpLeg  -9.34687 -10.0093 1.37212
RightLeg  6.04803 -1.15664 -0.0503558
RightFoot  2.61616 0.012523 0.0901139
RightToes  -19.3237 -0.0802726 -0.175105
Spine  -2.55942 0.0390207 0.0172387
Spine1  -5.20608 0.207469 0.651536
HEad  -67.805 -0.842686 6.78936
LeftShoulder1  -1.94126e-019 -3.10601e-018 -2.51263e-017
LeftArm  -6.81448 24.5663 -84.1842
LeftForeArm  34.873 -16.2864 -2.67405
LeftHand  -0.515914 -3.12544 7.21104
RightShoulder  -4.96962e-017 0 -2.36833e-017
RightArm  -19.0153 -22.9133 78.5362
RightForeArm  58.9308 14.4659 1.14645
RightHand  -0.477964 0.493773 -9.51057
LeftUpLeg  -8.93879 -7.0236 -1.4343
LeftLeg  5.24114 10.6332 0.289169
LeftFoot  3.41617 -0.0238643 0.79213
LeftToes  -16.1889 1.31424e-006 1.14295e-007
